<svg width="112" height="110" viewBox="0 0 112 110" fill="none" xmlns="http://www.w3.org/2000/svg">
<path d="M28.4872 30.2389C40.4236 44.837 28.0385 69.3194 11.4561 62.9541C4.30424 60.2087 0.169694 52.4795 0.040789 44.5777C-0.25612 26.3281 18.2401 17.7029 28.4872 30.2389Z" fill="#FAC663" fill-opacity="0.15"/>
<path d="M42.977 39.4213C24.6347 32.3804 31.0474 -0.740878 50.4307 0.849691C59.2615 1.57509 66.1506 10.6127 65.1404 21.9117C64.0114 34.5773 53.2886 43.3796 42.977 39.4213Z" fill="#FAC663" fill-opacity="0.15"/>
<path d="M26.5036 96.4361C29.32 96.7128 34.0143 97.9965 38.7715 99.7478C43.8016 101.595 48.9016 103.962 51.9316 106.197C60.1089 112.248 74.9192 110.887 77.0831 97.0833C79.0822 84.3216 69.7438 81.5076 71.8861 69.5085C74.0578 57.384 67.742 48.7059 59.4054 45.9946C51.6892 43.4863 42.2424 46.0917 36.2079 55.8158C29.7805 66.1789 20.979 62.0223 13.9306 72.8413C6.28815 84.554 16.4225 95.4524 26.5036 96.4361Z" fill="#FAC663" fill-opacity="0.15"/>
<path d="M75.2585 51.8142C70.0702 49.8226 66.7661 45.1118 66.0527 39.5694C63.9336 23.0894 83.2787 8.82701 95.526 18.1731C111.019 29.9866 93.5907 58.8513 75.2585 51.8142Z" fill="#FAC663" fill-opacity="0.15"/>
<path d="M75.5259 75.8981C75.1441 59.2893 95.8319 47.1219 107.048 57.7544C120.558 70.561 102.479 96.4881 84.8202 89.7096C79.1532 87.5342 75.6708 82.2118 75.5259 75.8981Z" fill="#FAC663" fill-opacity="0.15"/>
</svg>
