<svg width="102" height="105" viewBox="0 0 102 105" fill="none" xmlns="http://www.w3.org/2000/svg">
<path d="M16.5802 63.31C34.5635 60.6469 48.5671 82.9442 35.0528 93.5027C29.2241 98.0566 20.7921 97.6616 14.2151 93.8731C-0.974486 85.1228 1.13873 65.5944 16.5802 63.31Z" fill="#FAC663" fill-opacity="0.15"/>
<path d="M31.373 55.8684C16.4244 67.5476 -7.67716 45.9249 3.29824 30.6994C8.29911 23.7632 19.1829 22.528 27.9919 28.9318C37.8681 36.1074 39.7768 49.3027 31.373 55.8684Z" fill="#FAC663" fill-opacity="0.15"/>
<path d="M70.1516 97.5782C71.7839 95.3884 75.1825 92.1439 78.9978 89.078C83.0283 85.8339 87.5223 82.7884 90.875 81.3874C99.9399 77.6162 106.202 64.7127 95.9039 56.1213C86.3822 48.1796 79.4068 54.5056 70.5851 46.8215C61.6749 39.0515 51.3732 39.9904 44.9819 45.5396C39.0673 50.6763 36.5045 59.7631 41.5105 69.5405C46.8472 79.9573 39.0328 85.178 44.4357 96.3326C50.2789 108.418 64.3144 105.42 70.1516 97.5782Z" fill="#FAC663" fill-opacity="0.15"/>
<path d="M57.6828 35.3143C53.4544 38.6179 47.9243 39.0249 43.0005 36.8821C28.3609 30.5091 26.2511 7.50087 40.0607 1.99206C57.5225 -4.98159 72.6232 23.6416 57.6828 35.3143Z" fill="#FAC663" fill-opacity="0.15"/>
<path d="M77.6663 46.9648C63.7868 39.0934 64.0732 16.0089 78.4288 11.9861C95.7204 7.13975 108.075 34.8523 93.684 46.0961C89.0655 49.7045 82.9423 49.9573 77.6663 46.9648Z" fill="#FAC663" fill-opacity="0.15"/>
</svg>
